<svg width="32" height="32" viewBox="0 0 32 32" fill="none" xmlns="http://www.w3.org/2000/svg">
<mask id="path-1-inside-1_371_68" fill="white">
<path fill-rule="evenodd" clip-rule="evenodd" d="M31.9997 22.4123C29.9208 23.3289 27.62 23.8382 25.1996 23.8382C15.9217 23.8382 8.40039 16.3554 8.40039 7.12498C8.40039 4.57644 8.97375 2.16113 9.99915 -0.000242888C4.10895 2.59689 0 8.46458 0 15.2871C0 24.5175 7.52127 32.0002 16.7992 32.0002C23.5155 32.0002 29.3113 28.0791 31.9997 22.4123Z"/>
</mask>
<path d="M31.9997 22.4123L33.8067 23.2695L36.1102 18.4141L31.1928 20.5823L31.9997 22.4123ZM9.99915 -0.000242888L11.8061 0.857015L14.1096 -3.99844L9.19226 -1.83025L9.99915 -0.000242888ZM31.1928 20.5823C29.3634 21.3889 27.3371 21.8382 25.1996 21.8382V25.8382C27.9029 25.8382 30.4781 25.269 32.8066 24.2423L31.1928 20.5823ZM25.1996 21.8382C17.0165 21.8382 10.4004 15.2412 10.4004 7.12498H6.40039C6.40039 17.4697 14.8268 25.8382 25.1996 25.8382V21.8382ZM10.4004 7.12498C10.4004 4.87941 10.905 2.75636 11.8061 0.857015L8.19219 -0.857501C7.04248 1.56589 6.40039 4.27347 6.40039 7.12498H10.4004ZM2 15.2871C2 9.28994 5.61046 4.12062 10.806 1.82976L9.19226 -1.83025C2.60744 1.07316 -2 7.63922 -2 15.2871H2ZM16.7992 30.0002C8.61614 30.0002 2 23.4033 2 15.2871H-2C-2 25.6317 6.4264 34.0002 16.7992 34.0002V30.0002ZM30.1927 21.555C27.8248 26.5463 22.7186 30.0002 16.7992 30.0002V34.0002C24.3125 34.0002 30.7978 29.6118 33.8067 23.2695L30.1927 21.555Z" fill="#FFFAFA" mask="url(#path-1-inside-1_371_68)"/>
</svg>
